<?xml version="1.0" standalone="no"?>
<!DOCTYPE svg PUBLIC "-//W3C//DTD SVG 20010904//EN"
 "http://www.w3.org/TR/2001/REC-SVG-20010904/DTD/svg10.dtd">
<svg version="1.0" xmlns="http://www.w3.org/2000/svg"
 width="259.000000pt" height="194.000000pt" viewBox="0 0 259.000000 194.000000"
 preserveAspectRatio="xMidYMid meet">

<g transform="translate(0.000000,194.000000) scale(0.100000,-0.100000)"
fill="#000000" stroke="none">
<path d="M2287 1923 c3 -7 6 -13 8 -13 2 0 5 6 8 13 3 8 -1 14 -8 14 -7 0 -11
-6 -8 -14z"/>
<path d="M2340 1931 c0 -13 50 -51 66 -51 8 0 14 -4 14 -10 0 -5 -4 -10 -10
-10 -23 0 -7 -22 28 -38 20 -9 41 -23 45 -29 4 -7 15 -13 22 -13 17 0 55 -35
55 -50 0 -5 7 -10 15 -10 12 0 15 19 15 110 l0 110 -125 0 c-70 0 -125 -4
-125 -9z"/>
<path d="M2305 1899 c-4 -6 -5 -12 -2 -15 2 -3 7 2 10 11 7 17 1 20 -8 4z"/>
<path d="M2568 1693 c7 -3 16 -2 19 1 4 3 -2 6 -13 5 -11 0 -14 -3 -6 -6z"/>
<path d="M1810 1355 c-7 -8 -16 -12 -21 -9 -14 8 -49 -6 -49 -20 0 -25 61
-206 70 -206 21 0 40 14 40 29 0 9 -12 51 -25 95 -20 60 -23 82 -14 92 18 22
27 8 55 -84 14 -48 29 -91 34 -95 4 -4 19 -5 32 -2 l26 7 -25 81 c-14 45 -31
92 -39 105 -17 26 -65 30 -84 7z"/>
<path d="M1576 1289 c-19 -15 -26 -29 -24 -47 4 -31 18 -37 43 -18 17 13 18
18 8 35 -17 27 -16 31 6 31 12 0 23 -11 29 -29 9 -27 7 -32 -24 -60 -42 -39
-52 -73 -30 -106 18 -28 65 -34 88 -12 7 6 26 13 42 14 16 1 30 4 32 6 7 7
-48 172 -64 190 -21 23 -73 22 -106 -4z m92 -124 c12 -44 8 -75 -9 -75 -21 0
-39 96 -22 113 13 14 19 6 31 -38z"/>
<path d="M1407 1242 c-12 -13 -27 -17 -50 -14 -21 2 -38 -2 -45 -11 -7 -8 -20
-13 -30 -11 -9 2 -23 0 -31 -5 -11 -7 -8 -27 17 -111 17 -56 33 -104 36 -107
2 -3 16 -1 29 3 l25 9 -24 80 c-25 87 -29 121 -15 130 14 8 23 -11 51 -105 26
-85 39 -100 69 -81 13 8 11 23 -12 101 -28 91 -28 110 -2 110 9 0 25 -35 45
-99 29 -94 31 -98 55 -93 14 2 25 10 25 18 0 30 -53 180 -68 192 -23 17 -56
15 -75 -6z"/>
<path d="M1132 1220 c-17 -8 -21 -15 -17 -33 6 -21 2 -25 -22 -30 -47 -9 -64
-63 -43 -138 20 -72 86 -112 123 -74 8 8 17 12 20 9 2 -3 16 -2 30 1 l25 7
-14 51 c-45 155 -65 217 -72 216 -4 0 -17 -4 -30 -9z m3 -100 c21 -42 44 -145
35 -160 -17 -27 -38 1 -60 79 -22 77 -22 111 -1 111 6 0 17 -13 26 -30z"/>
<path d="M922 1162 c-10 -7 -5 -37 24 -138 20 -71 38 -130 39 -132 1 -2 14 0
28 3 29 8 39 34 24 61 -6 10 -23 62 -37 114 -21 75 -31 96 -46 98 -10 1 -25
-2 -32 -6z"/>
<path d="M579 1069 c-57 -25 -79 -61 -79 -128 0 -86 48 -171 97 -171 27 0 29
-6 8 -26 -17 -18 -20 -66 -5 -94 7 -12 37 -28 79 -40 49 -15 72 -28 81 -45 17
-32 7 -55 -22 -49 -13 3 -31 7 -40 8 -10 1 -21 6 -25 11 -5 4 -2 5 5 1 6 -4
12 -2 12 4 0 7 -9 14 -20 17 -11 3 -20 9 -20 12 0 4 -7 8 -15 8 -8 0 -15 -3
-15 -7 0 -19 32 -110 39 -110 28 0 127 44 140 62 32 46 39 66 28 77 -8 8 -7
11 2 11 8 0 5 9 -8 26 -11 15 -18 31 -14 38 4 6 -2 4 -12 -4 -14 -11 -17 -11
-11 -1 7 10 4 12 -12 7 -12 -4 -26 -1 -33 7 -7 7 -24 11 -37 9 -27 -5 -58 23
-57 53 0 15 8 21 31 23 25 2 37 -3 57 -27 28 -33 43 -40 33 -16 -3 8 0 15 6
15 7 0 7 4 0 13 -11 13 -43 114 -40 125 1 4 -3 17 -10 30 -7 12 -10 22 -6 22
3 0 1 6 -5 14 -13 15 -20 15 -68 -4 -18 -6 -33 -16 -33 -22 0 -6 7 -7 16 -4
11 4 19 -4 30 -29 19 -46 18 -91 -2 -99 -21 -8 -24 -8 -24 5 0 5 5 7 10 4 6
-3 10 -1 10 4 0 6 -7 11 -15 11 -14 0 -19 11 -16 38 1 7 -3 11 -9 10 -13 -3
-44 78 -36 97 2 7 2 16 -2 20 -15 15 -9 66 9 76 23 12 49 0 79 -38 l21 -28 -5
34 c-3 18 -6 42 -6 52 0 25 -30 24 -91 -2z"/>
<path d="M761 1054 c-24 -31 -28 -104 -8 -144 18 -35 76 -72 101 -64 30 9 63
42 70 70 9 36 -12 105 -42 137 -36 37 -92 38 -121 1z m88 -63 c29 -97 30 -131
6 -131 -8 0 -15 7 -15 15 0 8 -4 15 -9 15 -10 0 -41 106 -41 141 0 65 36 41
59 -40z"/>
<path d="M1443 925 c-38 -16 -56 -46 -47 -79 4 -19 20 -30 67 -48 69 -26 87
-57 47 -78 -18 -10 -25 -7 -51 21 -16 17 -31 30 -34 28 -2 -3 1 -23 7 -46 l10
-41 47 13 c25 8 54 24 64 36 36 45 10 105 -51 115 -53 8 -80 30 -66 52 16 26
40 26 63 1 17 -18 21 -19 21 -7 0 49 -21 58 -77 33z"/>
<path d="M1181 901 c-12 -8 -11 -21 7 -89 26 -94 28 -139 6 -170 -17 -24 -59
-27 -59 -4 0 6 -4 11 -8 10 -15 -5 -36 48 -43 106 -5 45 -4 56 8 56 9 0 14
-10 13 -27 0 -22 5 -29 22 -31 32 -5 53 46 27 65 -10 7 -29 13 -44 13 -85 0
-114 -121 -49 -204 16 -20 29 -26 60 -26 50 0 75 13 93 47 13 26 14 26 20 5 8
-23 31 -28 55 -13 12 8 11 22 -12 91 -28 86 -33 115 -18 124 15 9 28 -15 55
-106 26 -87 34 -96 70 -82 18 7 16 16 -16 127 -25 86 -54 110 -99 84 -28 -16
-29 -15 -35 9 -6 25 -28 31 -53 15z"/>
<path d="M885 773 c-33 -8 -55 -34 -55 -65 0 -24 4 -28 29 -28 34 0 51 37 26
56 -13 10 -13 12 4 17 16 4 21 -2 27 -26 5 -26 1 -35 -30 -64 -27 -26 -36 -42
-36 -67 0 -55 49 -83 95 -53 11 7 36 12 57 12 30 0 35 3 27 16 -4 9 -6 19 -2
22 3 4 1 12 -5 19 -6 7 -16 36 -23 63 -23 97 -44 115 -114 98z m63 -182 c-3
-23 -5 -21 -19 19 -9 25 -14 52 -11 60 8 22 34 -47 30 -79z"/>
<path d="M168 583 c7 -3 16 -2 19 1 4 3 -2 6 -13 5 -11 0 -14 -3 -6 -6z"/>
<path d="M215 510 c-3 -5 1 -10 9 -10 9 0 16 5 16 10 0 6 -4 10 -9 10 -6 0
-13 -4 -16 -10z"/>
<path d="M0 460 c0 -29 4 -40 15 -40 11 0 15 11 15 40 0 29 -4 40 -15 40 -11
0 -15 -11 -15 -40z"/>
<path d="M720 456 c0 -2 7 -6 15 -10 8 -3 15 -1 15 4 0 6 -7 10 -15 10 -8 0
-15 -2 -15 -4z"/>
<path d="M240 404 c0 -17 22 -14 28 4 2 7 -3 12 -12 12 -9 0 -16 -7 -16 -16z"/>
<path d="M0 339 c0 -38 5 -55 17 -65 17 -13 17 -13 1 -14 -16 0 -18 -13 -18
-130 l0 -130 159 0 c118 0 161 3 164 13 4 9 6 9 6 0 1 -17 68 -17 74 0 4 9 6
9 6 0 1 -18 147 -18 155 -1 5 10 7 10 12 1 8 -18 104 -18 104 0 0 8 4 7 10 -3
9 -13 10 -13 10 0 0 13 1 13 10 0 9 -13 10 -13 10 0 0 12 2 13 9 1 7 -11 9
-11 14 0 4 10 6 10 6 2 1 -17 38 -17 44 0 4 9 6 9 6 0 1 -15 31 -18 31 -3 0 6
7 10 15 10 8 0 15 -4 15 -10 0 -5 9 -10 20 -10 11 0 20 5 20 10 0 6 -4 10 -10
10 -5 0 -10 5 -10 10 0 6 18 10 40 10 33 0 40 3 40 20 0 17 -7 20 -40 20 -22
0 -40 5 -40 10 0 6 -22 10 -50 10 -38 0 -52 4 -60 19 -5 11 -19 23 -30 26 -11
3 -20 13 -20 21 0 10 13 14 50 14 28 0 50 3 50 8 0 9 -166 9 -176 -1 -4 -4
-18 -7 -31 -7 -20 0 -23 5 -23 40 0 29 -4 40 -15 40 -9 0 -15 -9 -15 -25 0
-22 -4 -25 -37 -25 -44 1 -116 24 -121 40 -6 16 -19 12 -49 -17 -24 -24 -28
-26 -31 -10 -3 12 -13 17 -38 17 -45 0 -64 19 -64 64 0 35 -1 36 -36 36 -26 0
-43 7 -60 25 -19 20 -33 25 -74 25 l-50 0 0 -51z m80 -15 c0 -8 -4 -12 -10 -9
-5 3 -10 10 -10 16 0 5 5 9 10 9 6 0 10 -7 10 -16z m63 -121 c-13 -2 -33 -2
-45 0 -13 2 -3 4 22 4 25 0 35 -2 23 -4z m217 -32 c0 -6 -4 -13 -10 -16 -5 -3
-10 1 -10 9 0 9 5 16 10 16 6 0 10 -4 10 -9z m60 5 c0 -2 -7 -9 -15 -16 -12
-10 -15 -10 -15 4 0 9 7 16 15 16 8 0 15 -2 15 -4z m120 -36 c0 -29 -4 -40
-15 -40 -11 0 -15 11 -15 40 0 29 4 40 15 40 11 0 15 -11 15 -40z m40 0 c0
-22 -4 -40 -10 -40 -5 0 -10 18 -10 40 0 22 5 40 10 40 6 0 10 -18 10 -40z
m-135 -10 c-5 -8 -11 -8 -17 -2 -6 6 -7 16 -3 22 5 8 11 8 17 2 6 -6 7 -16 3
-22z m243 -18 c2 -7 -7 -12 -22 -12 -21 0 -26 5 -26 26 0 25 1 26 22 12 12 -8
24 -20 26 -26z m-337 -12 c10 0 19 6 19 13 0 8 4 7 10 -3 8 -12 11 -13 19 -1
5 8 11 9 15 3 8 -13 -17 -22 -60 -22 -26 0 -34 4 -33 18 0 10 3 12 6 5 2 -7
13 -13 24 -13z"/>
<path d="M320 365 c0 -18 5 -25 20 -25 17 0 18 3 8 25 -6 14 -15 25 -20 25 -4
0 -8 -11 -8 -25z"/>
<path d="M560 380 c0 -5 5 -10 10 -10 6 0 10 5 10 10 0 6 -4 10 -10 10 -5 0
-10 -4 -10 -10z"/>
<path d="M160 370 c0 -5 18 -10 40 -10 22 0 40 5 40 10 0 6 -18 10 -40 10 -22
0 -40 -4 -40 -10z"/>
<path d="M240 300 c0 -38 2 -40 30 -40 28 0 30 2 30 40 0 38 -2 40 -30 40 -28
0 -30 -2 -30 -40z"/>
<path d="M372 328 c6 -18 28 -21 28 -4 0 9 -7 16 -16 16 -9 0 -14 -5 -12 -12z"/>
<path d="M888 333 c6 -2 18 -2 25 0 6 3 1 5 -13 5 -14 0 -19 -2 -12 -5z"/>
<path d="M320 280 c0 -13 7 -20 20 -20 13 0 20 7 20 20 0 13 -7 20 -20 20 -13
0 -20 -7 -20 -20z"/>
<path d="M640 245 c0 -13 4 -14 20 -5 11 6 20 13 20 15 0 3 -9 5 -20 5 -11 0
-20 -7 -20 -15z"/>
<path d="M980 239 c0 -11 5 -17 10 -14 6 3 10 13 10 21 0 8 -4 14 -10 14 -5 0
-10 -9 -10 -21z"/>
<path d="M738 223 c12 -2 32 -2 45 0 12 2 2 4 -23 4 -25 0 -35 -2 -22 -4z"/>
<path d="M1000 195 c0 -8 7 -15 15 -15 9 0 12 6 9 15 -4 8 -10 15 -15 15 -5 0
-9 -7 -9 -15z"/>
<path d="M1089 165 c-9 -33 -21 -55 -31 -55 -5 0 -6 10 -3 23 6 17 4 19 -5 11
-6 -7 -10 -22 -8 -34 l3 -22 28 22 c16 12 26 28 23 36 -3 7 0 15 7 18 9 3 9 5
0 5 -7 1 -14 -1 -14 -4z"/>
<path d="M1211 144 c0 -11 3 -14 6 -6 3 7 2 16 -1 19 -3 4 -6 -2 -5 -13z"/>
<path d="M1178 143 c7 -3 16 -2 19 1 4 3 -2 6 -13 5 -11 0 -14 -3 -6 -6z"/>
<path d="M880 116 c0 -9 7 -16 16 -16 17 0 14 22 -4 28 -7 2 -12 -3 -12 -12z"/>
<path d="M1180 119 c0 -5 5 -7 10 -4 6 3 10 8 10 11 0 2 -4 4 -10 4 -5 0 -10
-5 -10 -11z"/>
<path d="M1540 111 c0 -6 4 -13 10 -16 6 -3 7 1 4 9 -7 18 -14 21 -14 7z"/>
<path d="M1195 90 c3 -5 8 -10 11 -10 2 0 4 5 4 10 0 6 -5 10 -11 10 -5 0 -7
-4 -4 -10z"/>
<path d="M1115 80 c3 -5 8 -10 11 -10 2 0 4 5 4 10 0 6 -5 10 -11 10 -5 0 -7
-4 -4 -10z"/>
<path d="M1041 55 c1 -16 3 -22 6 -13 4 16 6 16 19 4 16 -17 19 -30 4 -21 -6
3 -7 -1 -4 -9 8 -21 30 -20 38 1 4 10 4 15 1 11 -4 -4 -20 8 -36 25 l-28 32 0
-30z"/>
<path d="M1158 42 c-21 -10 -38 -24 -38 -32 0 -13 1 -13 10 0 9 13 11 13 20 0
8 -13 10 -12 11 5 l0 20 10 -20 9 -20 -3 20 c-1 11 4 25 13 32 19 16 13 15
-32 -5z"/>
<path d="M1390 50 c0 -5 5 -10 11 -10 5 0 7 5 4 10 -3 6 -8 10 -11 10 -2 0 -4
-4 -4 -10z"/>
<path d="M1225 40 c-8 -13 23 -45 33 -35 4 4 1 10 -5 12 -7 3 -13 9 -13 15 0
6 7 7 16 4 8 -3 12 -2 9 4 -8 13 -32 13 -40 0z"/>
<path d="M1280 33 c0 -5 5 -15 10 -23 8 -12 10 -11 10 8 0 12 -4 22 -10 22 -5
0 -10 -3 -10 -7z"/>
<path d="M920 10 c0 -5 5 -10 10 -10 6 0 10 5 10 10 0 6 -4 10 -10 10 -5 0
-10 -4 -10 -10z"/>
<path d="M970 10 c0 -5 9 -10 20 -10 11 0 20 5 20 10 0 6 -9 10 -20 10 -11 0
-20 -4 -20 -10z"/>
</g>
</svg>
